<svg width="227"
     height="353"
     viewBox="0 0 227 353"
     fill="none"
     xmlns="http://www.w3.org/2000/svg">
    <g clip-path="url(#clip0_1406_150)">
        <path d="M275 -48H-49V401H275V-48Z"/>
        <path d="M65.2578 319.422C65.2578 324.878 69.7575 329.301 75.3086 329.301C122.103 329.301 145.154 330.16 157.826 349.13C161.035 353.179 166.862 354.139 171.238 351.341C175.615 348.541 177.082 342.915 174.614 338.392C155.423 309.757 121.812 309.757 75.3086 309.757C69.7575 309.757 65.2578 314.181 65.2578 319.637"
              fill="url(#paint0_linear_1406_150)"/>
        <path d="M65.2569 279.798C65.2569 285.254 69.7581 289.677 75.3085 289.677C123.195 289.677 152.255 291.753 155.787 301.883C154.986 303.815 152.364 305.748 144.134 307.252C131.462 309.614 111.36 309.578 83.7567 309.542H75.3085C69.7581 309.542 65.2569 313.966 65.2569 319.422C65.2569 324.878 69.7581 329.301 75.3085 329.301H91.404C116.24 329.301 134.63 329.086 147.849 326.652C161.068 324.218 170.172 318.635 173.995 310.259C175.298 307.579 176.041 304.671 176.18 301.704C176.15 298.858 175.582 296.042 174.505 293.4C165.401 269.776 123.304 269.776 75.3811 269.776C72.6778 269.756 70.0798 270.809 68.1752 272.694C66.2705 274.58 65.2183 277.141 65.2569 279.798Z"
              fill="url(#paint1_linear_1406_150)"/>
        <path d="M113.691 -0.106679C69.2971 -0.125387 28.9727 25.3118 10.4972 64.9886C-7.97799 104.665 -1.20775 151.289 27.8228 184.301C34.7396 193.572 39.6927 204.112 42.3892 215.299C47.5232 234.161 61.2523 244.577 80.9898 244.577C80.9898 244.577 88.6627 245.266 99.853 244.577C111.043 243.889 124.157 241.191 129.435 239.971C139.609 237.62 135.695 219.598 127.478 220.773C119.261 221.948 108.897 224.903 96.4661 225.106C90.4373 225.204 81.0262 225.106 81.0262 225.106C70.5386 225.106 64.6029 220.595 61.8352 210.466C55.0252 185.411 43.882 172.561 43.1174 171.702C16.1525 140.882 13.0263 96.2996 35.4345 62.1352C57.8428 27.9708 100.446 12.3652 140.136 23.7827C179.827 35.2004 207.147 70.9206 207.279 111.569C207.27 134.517 199.248 156.767 184.556 174.601C181.315 178.181 160.994 201.948 160.994 245.329C160.994 257.571 134.557 269.884 75.4909 269.884C69.9398 269.884 65.4401 274.306 65.4401 279.762C65.4401 285.219 69.9398 289.641 75.4909 289.641C167.368 289.641 181.096 261.901 181.096 245.329C181.096 207.71 198.685 188.704 199.522 187.809L199.705 187.559C217.616 166.183 227.379 139.333 227.308 111.64C227.327 82.0102 215.365 53.5862 194.056 32.6277C172.746 11.6689 143.837 -0.106679 113.691 -0.106679Z"
              fill="#008ED6"/>
        <path d="M124.739 133.876C124.739 131.667 122.948 129.876 120.739 129.876H107.609C105.4 129.876 103.609 131.667 103.609 133.876V136.063C103.609 138.272 105.4 140.063 107.609 140.063H120.739C122.948 140.063 124.739 138.272 124.739 136.063V133.876Z"
              fill="#0081C1"/>
        <path fill-rule="evenodd"
              clip-rule="evenodd"
              d="M85.672 97.9137C86.7766 97.9137 87.672 97.0182 87.672 95.9137V92.6347C87.672 89.8346 88.7889 87.1491 90.7769 85.1691C92.7649 83.1891 95.4613 82.0768 98.2728 82.0768H130.075C132.887 82.0768 135.583 83.1891 137.571 85.1691C139.559 87.1491 140.676 89.8346 140.676 92.6347V95.9137C140.676 97.0182 141.571 97.9137 142.676 97.9137H156.577C160.794 97.9137 164.839 99.5822 167.821 102.552C170.803 105.522 172.478 109.55 172.478 113.751V166.54C172.478 170.74 170.803 174.768 167.821 177.738C164.839 180.708 160.794 182.377 156.577 182.377H71.7708C67.5536 182.377 63.509 180.708 60.527 177.738C57.5449 174.768 55.8696 170.74 55.8696 166.54V113.751C55.8696 109.55 57.5449 105.522 60.527 102.552C63.509 99.5822 67.5536 97.9137 71.7708 97.9137H85.672ZM98.2728 94.6347C98.2728 93.5301 99.1682 92.6347 100.273 92.6347H128.075C129.18 92.6347 130.075 93.5301 130.075 94.6347V95.9137C130.075 97.0182 129.18 97.9137 128.075 97.9137H100.273C99.1682 97.9137 98.2728 97.0182 98.2728 95.9137V94.6347ZM71.7708 108.472C70.3651 108.472 69.0169 109.028 68.0229 110.018C67.0289 111.008 66.4704 112.35 66.4704 113.751V143.424C66.4704 144.529 67.3659 145.424 68.4704 145.424H159.878C160.982 145.424 161.878 144.529 161.878 143.424V113.751C161.878 112.35 161.319 111.008 160.325 110.018C159.331 109.028 157.983 108.472 156.577 108.472H71.7708ZM66.4704 166.54V157.982C66.4704 156.878 67.3659 155.982 68.4704 155.982H159.878C160.982 155.982 161.878 156.878 161.878 157.982V166.54C161.878 167.94 161.319 169.283 160.325 170.273C159.331 171.263 157.983 171.819 156.577 171.819H71.7708C70.3651 171.819 69.0169 171.263 68.0229 170.273C67.0289 169.283 66.4704 167.94 66.4704 166.54Z"
              fill="#0081C1"/>
    </g>
    <defs>
        <linearGradient id="paint0_linear_1406_150"
                        x1="149.008"
                        y1="352.94"
                        x2="149.008"
                        y2="336.073"
                        gradientUnits="userSpaceOnUse">
            <stop stop-color="#008ED6"/>
            <stop offset="1" stop-color="#1B5266"/>
        </linearGradient>
        <linearGradient id="paint1_linear_1406_150"
                        x1="78.0965"
                        y1="306.051"
                        x2="78.0965"
                        y2="269.776"
                        gradientUnits="userSpaceOnUse">
            <stop stop-color="#008ED6"/>
            <stop offset="1" stop-color="#1B5266"/>
        </linearGradient>
        <clipPath id="clip0_1406_150">
            <rect width="227" height="353"/>
        </clipPath>
    </defs>
</svg>
