<svg width="300" height="472" viewBox="0 0 300 472" fill="none" xmlns="http://www.w3.org/2000/svg">
<g clip-path="url(#clip0_1470_150)">
<path d="M85.9331 426.987C85.9331 434.278 91.8771 440.188 99.2101 440.188C161.025 440.188 191.475 441.336 208.215 466.686C212.453 472.097 220.151 473.38 225.932 469.64C231.713 465.899 233.651 458.381 230.391 452.337C205.04 414.072 160.64 414.072 99.2101 414.072C91.8771 414.072 85.9331 419.983 85.9331 427.274" fill="url(#paint0_linear_1470_150)"/>
<path d="M85.932 374.038C85.932 381.329 91.878 387.239 99.21 387.239C162.468 387.239 200.855 390.013 205.521 403.55C204.463 406.132 201 408.715 190.128 410.724C173.388 413.881 146.834 413.833 110.37 413.785H99.21C91.878 413.785 85.932 419.696 85.932 426.987C85.932 434.278 91.878 440.188 99.21 440.188H120.472C153.28 440.188 177.573 439.901 195.035 436.649C212.497 433.396 224.523 425.935 229.574 414.742C231.295 411.162 232.277 407.275 232.46 403.31C232.42 399.507 231.67 395.744 230.247 392.214C218.221 360.645 162.612 360.645 99.306 360.645C95.735 360.619 92.303 362.025 89.787 364.545C87.271 367.065 85.881 370.487 85.932 374.038Z" fill="url(#paint1_linear_1470_150)"/>
<path d="M149.913 1.37807e-05C91.269 -0.0249862 38.001 33.9668 13.5951 86.987C-10.8104 140.007 -1.86697 202.311 36.482 246.425C45.619 258.813 52.162 272.898 55.724 287.847C62.506 313.053 80.642 326.972 106.715 326.972H131.633C146.064 326.972 158.09 324.198 202.587 255.943C212.296 240.394 220.05 223.72 225.677 206.295C235.01 176.64 228.227 158.464 220.867 148.611C211.928 136.86 197.922 130.012 183.105 130.148C171.415 130.148 159.63 137.657 150.394 146.219C144.291 152.177 139.635 159.44 136.78 167.456C135.133 172.063 134.287 176.916 134.279 181.805C133.8 190.771 140.221 198.643 149.143 200.029C157.417 200.029 164.296 189.841 164.296 181.853C164.234 177.292 163.505 172.765 162.131 168.413C167.293 161.867 174.851 157.62 183.153 156.598C189.575 156.506 195.681 159.365 199.701 164.347C205.089 171.617 205.377 183.479 200.615 198.69C195.604 213.491 189.041 227.727 181.036 241.164C169.295 260.712 155.386 278.89 139.57 295.356C136.529 299.034 131.945 301.101 127.159 300.952H106.763C92.909 300.952 85.068 294.925 81.412 281.389C72.416 247.908 57.696 230.736 56.686 229.588C21.0657 188.404 16.936 128.828 46.537 83.174C76.138 37.52 132.416 16.6662 184.846 31.9235C237.277 47.181 273.367 94.914 273.541 149.232C273.529 179.898 262.933 209.631 243.524 233.463C239.243 238.246 212.4 270.006 212.4 327.977C212.4 344.335 177.477 360.789 99.451 360.789C92.118 360.789 86.174 366.699 86.174 373.99C86.174 381.281 92.118 387.191 99.451 387.191C220.819 387.191 238.954 350.122 238.954 327.977C238.954 277.706 262.189 252.308 263.295 251.112L263.536 250.778C287.197 222.213 300.093 186.334 300 149.328C300.025 109.733 284.223 71.75 256.074 43.743C227.924 15.7358 189.735 1.37807e-05 149.913 1.37807e-05Z" fill="#008ED6"/>
<path d="M78.718 149.759C68.038 165.017 66.74 185.871 75.11 208.495C82.951 229.78 101.856 251.543 115.71 265.462C120.811 270.626 129.157 270.701 134.351 265.629C139.545 260.557 139.62 252.259 134.519 247.095C117.73 230.115 104.646 212.513 99.836 199.264C94.544 184.914 94.736 172.622 100.317 164.586C104.743 158.659 111.854 155.321 119.27 155.69C126.557 156.779 132.958 161.087 136.684 167.408C139.537 159.391 144.193 152.128 150.297 146.171C142.36 137.514 131.729 129.43 119.27 129.43C103.242 129.041 88.059 136.563 78.718 149.519" fill="url(#paint2_linear_1470_150)"/>
</g>
<defs>
<linearGradient id="paint0_linear_1470_150" x1="196.566" y1="471.777" x2="196.566" y2="449.238" gradientUnits="userSpaceOnUse">
<stop stop-color="#008ED6"/>
<stop offset="1" stop-color="#1B5266"/>
</linearGradient>
<linearGradient id="paint1_linear_1470_150" x1="102.893" y1="409.119" x2="102.893" y2="360.645" gradientUnits="userSpaceOnUse">
<stop stop-color="#008ED6"/>
<stop offset="1" stop-color="#105F7B"/>
</linearGradient>
<linearGradient id="paint2_linear_1470_150" x1="99.804" y1="214.714" x2="147.518" y2="165.432" gradientUnits="userSpaceOnUse">
<stop stop-color="#008ED6"/>
<stop offset="1" stop-color="#1B5266"/>
</linearGradient>
<clipPath id="clip0_1470_150">
<rect width="300" height="472" fill="white"/>
</clipPath>
</defs>
</svg>
